<svg id="Capa_1" enable-background="new 0 0 511.982 511.982" height="512" viewBox="0 0 511.982 511.982" width="512" xmlns="http://www.w3.org/2000/svg"><g><g><path d="m405.047 86.492v75.5h-298.189v-75.5l149.133-58z" fill="#f3f5f9"/><path d="m382.091 161.992h22.956v-75.5l-22.956-8.932z" fill="#cfd7e6"/><path d="m440.728 119.684-181.589-75.663c-2.039-.85-4.333-.85-6.372 0l-181.589 75.663c-4.223 1.759-9.072-.237-10.832-4.46l-6.372-15.292c-1.759-4.223.237-9.072 4.46-10.832l194.333-80.971c2.039-.849 4.333-.849 6.371 0l194.333 80.971c4.223 1.76 6.22 6.609 4.46 10.832l-6.372 15.292c-1.759 4.223-6.609 6.22-10.831 4.46z" fill="#f25a3c"/><path d="m453.471 89.1-194.332-80.971c-2.039-.85-4.332-.85-6.371 0l-8.314 3.464 186.017 77.507c4.223 1.76 6.22 6.609 4.46 10.832l-6.155 14.772 11.952 4.98c4.223 1.759 9.072-.237 10.832-4.46l6.372-15.292c1.759-4.223-.238-9.072-4.461-10.832z" fill="#e63a3a"/><g><g><g><path d="m454.807 156.586c18.293 0 33.123 14.83 33.123 33.123v248.526c0 18.293-14.83 33.123-33.123 33.123h-397.656c-18.293 0-33.123-14.83-33.123-33.123v-248.526c0-18.293 14.83-33.123 33.123-33.123z" fill="#ffdf40"/><path d="m413.249 189.709c3.9 0 7.274 2.722 8.086 6.536 2.784 13.072 13.71 24.133 26.957 26.936 3.807.806 6.514 4.19 6.514 8.082v165.417c0 3.892-2.707 7.276-6.514 8.082-13.247 2.803-24.173 13.864-26.957 26.936-.813 3.815-4.186 6.536-8.086 6.536h-314.54c-3.9 0-7.274-2.722-8.086-6.536-2.784-13.072-13.71-24.133-26.957-26.936-3.807-.806-6.514-4.19-6.514-8.082v-165.416c0-3.892 2.707-7.276 6.514-8.082 13.247-2.803 24.173-13.865 26.957-26.936.813-3.815 4.186-6.536 8.086-6.536h314.54z" fill="#f3f5f9"/><path d="m454.807 156.586h-23c18.293 0 33.123 14.83 33.123 33.123v248.526c0 18.293-14.83 33.123-33.123 33.123h23c18.293 0 33.123-14.83 33.123-33.123v-248.526c0-18.293-14.83-33.123-33.123-33.123z" fill="#ffbe40"/><path d="m448.293 223.182c-13.247-2.803-24.173-13.864-26.957-26.936-.813-3.815-4.186-6.536-8.086-6.536h-23c3.9 0 7.274 2.722 8.086 6.536 2.784 13.072 13.71 24.133 26.957 26.936 3.807.806 6.514 4.19 6.514 8.082v165.417c0 3.892-2.706 7.276-6.514 8.082-13.247 2.803-24.173 13.864-26.957 26.936-.813 3.815-4.186 6.536-8.086 6.536h23c3.9 0 7.274-2.722 8.086-6.536 2.784-13.072 13.71-24.133 26.957-26.936 3.807-.806 6.514-4.19 6.514-8.082v-165.417c0-3.892-2.707-7.276-6.514-8.082z" fill="#cfd7e6"/></g></g><g><path d="m314.161 255.978h-116.493c-4.418 0-8-3.582-8-8v-17.123c0-4.418 3.582-8 8-8h116.493c4.418 0 8 3.582 8 8v17.123c0 4.418-3.582 8-8 8z" fill="#8db5ff"/><path d="m314.161 222.855h-23c4.418 0 8 3.582 8 8v17.123c0 4.418-3.582 8-8 8h23c4.418 0 8-3.582 8-8v-17.123c0-4.418-3.582-8-8-8z" fill="#7784ff"/></g><g><g><path d="m397.408 406.486 5.812 11.624c1.15 2.3 1.749 4.835 1.749 7.407v70.611c0 5.652-5.537 9.643-10.899 7.856l-22.223-7.408-13.944-12.728c-1.7-.567-3.537-.567-5.237 0l-13.943 12.728-22.223 7.408c-5.362 1.787-10.899-2.204-10.899-7.856v-70.611c0-2.571.599-5.107 1.749-7.407l5.811-11.621z" fill="#f25a3c"/><path d="m403.22 418.11-5.812-11.624-23 .001 5.812 11.623c1.15 2.3 1.748 4.835 1.748 7.407v70.611c0 1.289-.3 2.485-.808 3.553l12.909 4.303c5.362 1.787 10.899-2.204 10.899-7.856v-70.611c0-2.571-.598-5.107-1.748-7.407z" fill="#e63a3a"/><path d="m371.845 406.487-33.123.001v90.088l13.943-4.648c1.7-.567 3.538-.567 5.237 0l13.943 4.648z" fill="#f3f5f9"/><circle cx="355.284" cy="355.361" fill="#ffdf40" r="66.246"/><g fill="#ffbe40"><circle cx="355.284" cy="355.361" r="33.123"/><path d="m355.284 289.115c-3.925 0-7.763.361-11.5 1.015 31.102 5.447 54.746 32.569 54.746 65.231s-23.645 59.784-54.746 65.231c3.737.654 7.575 1.015 11.5 1.015 36.587 0 66.246-29.659 66.246-66.246s-29.659-66.246-66.246-66.246z"/></g></g></g></g></g><g><path d="m454.822 149.086h-42.274v-33.019l25.296 10.54c1.978.824 4.029 1.214 6.049 1.214 6.184-.001 12.067-3.657 14.589-9.712l6.372-15.292c1.622-3.892 1.631-8.182.025-12.081-1.605-3.898-4.632-6.938-8.523-8.559l-194.333-80.971c-3.858-1.608-8.284-1.608-12.141 0l-130.908 54.545c-3.823 1.593-5.631 5.984-4.038 9.808 1.593 3.823 5.984 5.631 9.808 4.038l130.909-54.545c.19-.079.41-.079.602 0l194.333 80.972c.198.083.341.226.422.424.082.199.082.4-.001.599l-6.373 15.293c-.082.198-.225.34-.424.422-.199.083-.401.082-.599-.001l-181.59-75.662c-3.858-1.608-8.284-1.608-12.141 0l-181.588 75.662c-.199.083-.401.083-.6.001s-.342-.224-.425-.423l-6.372-15.292c-.083-.199-.083-.4-.002-.6.082-.199.224-.342.423-.425l33.424-13.927c3.823-1.593 5.631-5.984 4.038-9.808-1.593-3.823-5.983-5.633-9.808-4.038l-33.422 13.928c-3.892 1.621-6.919 4.661-8.524 8.56-1.605 3.898-1.596 8.188.025 12.08l6.372 15.292c3.348 8.033 12.606 11.845 20.64 8.499l25.295-10.54v33.018h-42.197c-22.405 0-40.632 18.228-40.632 40.632v248.584c0 22.405 18.227 40.632 40.632 40.632h67.791c4.142 0 7.5-3.358 7.5-7.5s-3.358-7.5-7.5-7.5h-67.791c-14.134 0-25.632-11.499-25.632-25.632v-248.583c0-14.134 11.498-25.632 25.632-25.632h397.661c14.134 0 25.632 11.499 25.632 25.632v248.584c0 14.134-11.499 25.632-25.632 25.632h-42.274v-18.132h.706c7.397 0 13.884-5.246 15.424-12.476 2.191-10.289 10.901-18.993 21.181-21.168 7.222-1.527 12.463-8.013 12.463-15.421v-165.454c0-7.408-5.242-13.894-12.463-15.421-10.28-2.175-18.99-10.88-21.181-21.169-1.54-7.229-8.027-12.475-15.424-12.475h-314.525c-7.397 0-13.884 5.246-15.424 12.475-2.191 10.289-10.901 18.993-21.181 21.168-7.222 1.528-12.463 8.014-12.463 15.422v165.454c0 7.408 5.242 13.894 12.463 15.421 10.28 2.175 18.99 10.88 21.181 21.169 1.54 7.229 8.027 12.475 15.424 12.475h199.422v18.132h-143.388c-4.142 0-7.5 3.358-7.5 7.5s3.358 7.5 7.5 7.5h143.388v17.267c0 5.06 2.45 9.846 6.555 12.804 2.717 1.958 5.964 2.975 9.241 2.975 1.674 0 3.355-.265 4.978-.806l36.176-12.059c.162-.055.333-.055.496 0l36.176 12.058c4.8 1.602 10.115.79 14.22-2.168s6.555-7.745 6.555-12.804v-17.267h42.274c22.405 0 40.632-18.228 40.632-40.632v-248.584c0-22.405-18.227-40.633-40.632-40.633zm-340.464-39.268 141.294-58.873c.19-.079.41-.079.602 0l141.293 58.873v39.269h-283.189zm240.991 304.344c-32.403 0-58.764-26.361-58.764-58.764s26.361-58.764 58.764-58.764 58.764 26.361 58.764 58.764-26.361 58.764-58.764 58.764zm-256.62 16.641c-.362 0-.679-.253-.753-.601-3.441-16.153-16.601-29.302-32.747-32.718-.329-.07-.568-.384-.568-.747v-165.453c0-.363.239-.677.568-.747 16.146-3.416 29.306-16.565 32.747-32.718.074-.348.391-.601.753-.601h314.524c.362 0 .679.253.753.6 3.441 16.153 16.601 29.302 32.747 32.718.329.07.568.384.568.747v165.454c0 .363-.239.677-.568.747-16.146 3.416-29.306 16.565-32.747 32.718-.074.348-.391.601-.753.601h-.706v-5.23c0-3.716-.879-7.438-2.541-10.763l-3.278-6.557c13.793-13.411 22.385-32.144 22.385-52.855 0-40.419-32.681-73.334-73.005-73.745-.25-.025-.503-.038-.759-.038h-248.567c-4.142 0-7.5 3.358-7.5 7.5s3.358 7.5 7.5 7.5h204.07c-6.639 5.038-12.398 11.173-17.013 18.132h-187.057c-4.142 0-7.5 3.358-7.5 7.5s3.358 7.5 7.5 7.5h179.411c-2.137 5.743-3.585 11.82-4.227 18.132h-125.486c-4.142 0-7.5 3.358-7.5 7.5s3.358 7.5 7.5 7.5h125.483c1.793 17.722 9.896 33.598 22.007 45.374l-3.278 6.556c-1.662 3.324-2.541 7.046-2.541 10.763v5.23h-199.422zm215.452 66.142c-.093.031-.379.128-.705-.108-.325-.234-.325-.536-.325-.635v-70.63c0-1.4.331-2.802.957-4.055l1.888-3.777c4.758 3.014 9.879 5.496 15.287 7.368v66.135zm36.177-12.059-4.075 1.358v-57.66c2.974.366 5.995.577 9.066.577s6.092-.211 9.066-.577v57.66l-4.074-1.358c-3.22-1.072-6.764-1.072-9.983 0zm46.864 11.952c-.325.235-.61.14-.706.107l-17.102-5.7v-66.135c5.408-1.872 10.529-4.355 15.287-7.368l1.888 3.776c.626 1.253.958 2.655.958 4.055v70.63c0 .099 0 .4-.325.635z"/><path d="m456.893 197.294c4.142 0 7.5-3.358 7.5-7.5s-3.358-7.5-7.5-7.5h-4.141c-4.142 0-7.5 3.358-7.5 7.5s3.358 7.5 7.5 7.5z"/><path d="m55.09 197.294h4.141c4.142 0 7.5-3.358 7.5-7.5s-3.358-7.5-7.5-7.5h-4.141c-4.142 0-7.5 3.358-7.5 7.5s3.358 7.5 7.5 7.5z"/><path d="m55.09 430.803c-4.142 0-7.5 3.358-7.5 7.5s3.358 7.5 7.5 7.5h4.141c4.142 0 7.5-3.358 7.5-7.5s-3.358-7.5-7.5-7.5z"/><path d="m456.894 430.803h-4.142c-4.142 0-7.5 3.358-7.5 7.5s3.358 7.5 7.5 7.5h4.142c4.142 0 7.5-3.358 7.5-7.5s-3.358-7.5-7.5-7.5z"/><path d="m355.349 314.765c-22.405 0-40.632 18.228-40.632 40.632s18.228 40.632 40.632 40.632 40.632-18.228 40.632-40.632-18.228-40.632-40.632-40.632zm0 66.265c-14.134 0-25.632-11.499-25.632-25.632 0-14.134 11.499-25.632 25.632-25.632s25.632 11.499 25.632 25.632-11.499 25.632-25.632 25.632z"/><path d="m357.42 347.898h-4.142c-4.142 0-7.5 3.358-7.5 7.5s3.358 7.5 7.5 7.5h4.142c4.142 0 7.5-3.358 7.5-7.5s-3.358-7.5-7.5-7.5z"/><path d="m197.612 263.483h116.528c8.547 0 15.5-6.953 15.5-15.5v-17.133c0-8.547-6.953-15.5-15.5-15.5h-116.528c-8.547 0-15.5 6.953-15.5 15.5v17.132c0 8.548 6.953 15.501 15.5 15.501zm-.5-32.633c0-.276.224-.5.5-.5h116.528c.276 0 .5.224.5.5v17.132c0 .276-.224.5-.5.5h-116.528c-.276 0-.5-.224-.5-.5z"/><path d="m156.48 397.577h-33.056c-4.142 0-7.5 3.358-7.5 7.5s3.358 7.5 7.5 7.5h33.056c4.142 0 7.5-3.358 7.5-7.5s-3.358-7.5-7.5-7.5z"/></g></g></svg>