<?xml version="1.0" encoding="iso-8859-1"?>
<!-- Generator: Adobe Illustrator 19.0.0, SVG Export Plug-In . SVG Version: 6.00 Build 0)  -->
<svg version="1.1" id="Capa_1" xmlns="http://www.w3.org/2000/svg" xmlns:xlink="http://www.w3.org/1999/xlink" x="0px" y="0px"
	 viewBox="0 0 512 512" style="enable-background:new 0 0 512 512;" xml:space="preserve">
<path style="fill:#FFE477;" d="M272,512H22V386c0-38.147,20.452-71.61,50.963-90C42.452,277.61,22,244.147,22,206V80h250v126
	c0,38.147-20.452,71.61-50.963,90C251.548,314.39,272,347.853,272,386V512z"/>
<path style="fill:#FFA733;" d="M272,206V80H147v432h125V386c0-38.147-20.452-71.61-50.963-90C251.548,277.61,272,244.147,272,206z"
	/>
<rect y="80" style="fill:#8B8992;" width="294" height="30"/>
<path style="fill:#FFF5CC;" d="M222,502H72v-25c0-41.355,33.645-75,75-75s75,33.645,75,75V502z"/>
<path style="fill:#FFDAAA;" d="M147,402v100h75v-25C222,435.645,188.355,402,147,402z"/>
<rect y="482" style="fill:#8B8992;" width="294" height="30"/>
<g>
	<rect x="147" y="482" style="fill:#57555C;" width="147" height="30"/>
	<rect x="147" y="80" style="fill:#57555C;" width="147" height="30"/>
</g>
<path style="fill:#E0E0E2;" d="M327,110c-30.327,0-55-24.673-55-55s24.673-55,55-55s55,24.673,55,55S357.327,110,327,110z M327,30
	c-13.785,0-25,11.215-25,25s11.215,25,25,25s25-11.215,25-25S340.785,30,327,30z"/>
<path style="fill:#ACABB1;" d="M352,55c0,13.785-11.215,25-25,25v30c30.327,0,55-24.673,55-55S357.327,0,327,0v30
	C340.785,30,352,41.215,352,55z"/>
<path style="fill:#B87FD9;" d="M327,450c-102.009,0-185-82.99-185-185S224.991,80,327,80c102.01,0,185,82.99,185,185
	S429.01,450,327,450z"/>
<path style="fill:#8034AD;" d="M327,80v370c102.01,0,185-82.99,185-185S429.01,80,327,80z"/>
<path style="fill:#E3CEF0;" d="M327,390c-68.925,0-125-56.075-125-125s56.075-125,125-125s125,56.075,125,125S395.925,390,327,390z"
	/>
<path style="fill:#D5B4E8;" d="M452,265c0-68.925-56.075-125-125-125v250C395.925,390,452,333.925,452,265z"/>
<polygon style="fill:#8B8992;" points="377,280 312,280 312,195 342,195 342,250 377,250 "/>
<polygon style="fill:#57555C;" points="342,195 327,195 327,280 377,280 377,250 342,250 "/>
<g>
</g>
<g>
</g>
<g>
</g>
<g>
</g>
<g>
</g>
<g>
</g>
<g>
</g>
<g>
</g>
<g>
</g>
<g>
</g>
<g>
</g>
<g>
</g>
<g>
</g>
<g>
</g>
<g>
</g>
</svg>
