<svg id="Layer_1" enable-background="new 0 0 510.194 510.194" height="512" viewBox="0 0 510.194 510.194" width="512" xmlns="http://www.w3.org/2000/svg"><g><g><g id="XMLID_3585_"><path d="m293.726 510.194c-11.977 0-22.039-9.325-22.79-21.442l-11.329-182.69c-.781-12.599 8.798-23.445 21.397-24.227 12.618-.783 23.447 8.799 24.226 21.398l11.329 182.69c.781 12.599-8.798 23.445-21.397 24.227-.482.029-.96.044-1.436.044z" fill="#55696e"/></g><g id="XMLID_3584_"><path d="m215.533 510.194c-.477 0-.954-.015-1.436-.044-12.599-.781-22.178-11.628-21.397-24.227l11.327-182.69c.781-12.599 11.605-22.179 24.227-21.398 12.599.781 22.178 11.628 21.397 24.227l-11.328 182.69c-.751 12.116-10.814 21.442-22.79 21.442z" fill="#748488"/></g></g><g><ellipse cx="254.629" cy="70.062" fill="#ba6746" rx="39.475" ry="39.475" transform="matrix(.383 -.924 .924 .383 92.458 278.498)"/></g><g fill="#ba6746"><path d="m180.921 101.077-15.66-8.792.132-66.437c.02-10.52-8.489-19.064-19.009-19.084h-.039c-10.5 0-19.024 8.503-19.046 19.009l-.154 77.612c-.013 6.9 3.706 13.268 9.723 16.646l28.843 16.193 17.929-14.104z"/><path d="m382.471 25.772c-.021-10.506-8.544-19.009-19.046-19.009h-.039c-10.52.02-19.029 8.565-19.009 19.084l.132 66.437-17.358 9.745-2.616 24.002 18.006 11.044s21.945-12.322 30.361-17.045c6.017-3.378 9.736-9.746 9.723-16.646z"/><path d="m278.422 126.706-.484-4.587h-44.558l-.404 5.224c-1.025 13.257 9.456 24.579 22.752 24.579 13.551 0 24.117-11.74 22.694-25.216z"/></g><path d="m327.151 102.03-35.783 20.089h-13.431c.202 11.813-10.807 21.775-22.3 21.775-12.318 0-21.479-9.925-22.257-21.775h-14.978l-37.481-21.042-15.177 34.478c0 .23-.017.449-.033.668l38.255 21.477v146.948h101.299l-.18-146.568c.524-.27 18.49-10.355 37.457-21.004z" fill="#ffda52"/><g><path d="m411.985 48.393h-313.776c-5.784 0-10.474-4.689-10.474-10.474s4.69-10.474 10.474-10.474h313.776c5.784 0 10.474 4.689 10.474 10.474s-4.69 10.474-10.474 10.474z" fill="#a5c8cd"/></g><g><g><path d="m110.183 75.839h-5.773c-4.19 0-7.587-3.397-7.587-7.587v-60.665c0-4.19 3.397-7.587 7.587-7.587h5.773c4.19 0 7.587 3.397 7.587 7.587v60.664c0 4.191-3.397 7.588-7.587 7.588z" fill="#55879b"/></g><g><path d="m405.782 75.839h-5.773c-4.19 0-7.587-3.397-7.587-7.587v-60.665c0-4.19 3.397-7.587 7.587-7.587h5.773c4.19 0 7.587 3.397 7.587 7.587v60.664c.001 4.191-3.396 7.588-7.587 7.588z" fill="#55879b"/></g></g></g></svg>